Coordinates
version=1
nRows=9
nColumns=24
inDegrees=yes

Units are S.I. units (second, meters, Newtons, ...)
Angles are in degrees.

endheader
time	pelvis_tilt	pelvis_list	pelvis_rotation	pelvis_tx	pelvis_ty	pelvis_tz	hip_flexion_r	hip_adduction_r	hip_rotation_r	knee_angle_r	ankle_angle_r	subtalar_angle_r	mtp_angle_r	hip_flexion_l	hip_adduction_l	hip_rotation_l	knee_angle_l	ankle_angle_l	subtalar_angle_l	mtp_angle_l	lumbar_extension	lumbar_bending	lumbar_rotation
      2.09500000	     23.70294226	     -1.51571451	      1.45176166	     -0.77473261	      1.01888046	      0.01478064	    -38.25189336	      2.15214108	     -8.34111560	     -6.49648546	     15.14665218	     -5.49607138	     14.41873904	     -6.43428535	     -3.22574533	     -9.16129497	     -0.40235570	      0.81252743	      2.06018188	     31.47609611	    -39.80122860	      0.70034516	     10.34941369
      2.10000000	     23.77576154	     -1.50024551	      1.32254416	     -0.76899349	      1.01845475	      0.01427207	    -38.47138134	      1.97830190	     -8.24963174	     -6.88521009	     15.17156947	     -5.40626914	     14.32062630	     -6.47016606	     -3.11870363	     -9.34396461	     -0.80562293	      0.50753825	      1.84929126	     31.48535554	    -39.85232224	      0.57825312	     10.29764717
      2.10500000	     23.86918753	     -1.45609457	      1.20382362	     -0.76321893	      1.01809305	      0.01373533	    -38.69521996	      1.77908377	     -8.22731201	     -7.30967327	     15.19286812	     -5.22486511	     14.27838830	     -6.51535288	     -2.99003539	     -9.46136355	     -1.28436370	      0.12033050	      1.53664925	     31.46783101	    -39.92029324	      0.43229703	     10.25296604
      2.11000000	     23.98260658	     -1.38674729	      1.12537718	     -0.75742190	      1.01776578	      0.01313931	    -38.93270336	      1.57719688	     -8.28477682	     -7.75687557	     15.23276226	     -4.96071530	     14.29394645	     -6.55726826	     -2.84747921	     -9.45587868	     -1.84551954	     -0.32598490	      1.07065410	     31.44179527	    -40.00425108	      0.28170575	     10.20854866
      2.11500000	     24.04168412	     -1.34053520	      1.01856015	     -0.75162922	      1.01744285	      0.01260352	    -39.05914846	      1.37666506	     -8.24960805	     -8.28688409	     15.18460756	     -4.83717004	     14.35061584	     -6.52475813	     -2.74262799	     -9.49739452	     -2.47399316	     -0.80980320	      0.73159428	     31.38690459	    -40.03653876	      0.13303466	     10.09700951
      2.12000000	     24.14205408	     -1.25901834	      0.96669813	     -0.74584999	      1.01717406	      0.01192761	    -39.21478037	      1.16838912	     -8.33431448	     -8.85074691	     15.15262893	     -4.61849042	     14.60017038	     -6.52157757	     -2.60202918	     -9.31585557	     -3.14320600	     -1.33907817	      0.04992241	     31.29309734	    -40.10911575	     -0.01406759	     10.03326667
      2.12500000	     24.16987600	     -1.15165499	      0.97778547	     -0.74002785	      1.01686268	      0.01121401	    -39.27274895	      0.97849428	     -8.47452751	     -9.45148700	     14.98711618	     -4.51153442	     15.76644967	     -6.40023382	     -2.45832263	     -9.07793540	     -3.89616274	     -1.88495162	     -0.49416442	     31.14356001	    -40.10561708	     -0.15229184	      9.76987828
      2.13000000	     24.22186257	     -1.10927966	      0.82273051	     -0.73420744	      1.01668344	      0.01072636	    -39.29730093	      0.74056627	     -8.32646277	    -10.13408070	     14.83590987	     -4.45050148	     15.91572623	     -6.33971396	     -2.37605613	     -9.09577943	     -4.64408187	     -2.40723574	     -0.92497412	     31.03821538	    -40.12242416	     -0.33894377	      9.81713790
      2.13500000	     24.25564187	     -1.02539902	      0.83222203	     -0.72844856	      1.01647567	      0.00996930	    -39.27764885	      0.55568652	     -8.44409214	    -10.85874594	     14.43250049	     -4.46351508	     18.95950563	     -6.20233072	     -2.26366957	     -8.75843394	     -5.47412012	     -2.83575129	     -1.58684165	     30.36020893	    -40.12893725	     -0.46126942	      9.69977832
